<svg viewBox="0 0 24 24" fill="rgba(255,255,255,0.6)" xmlns="http://www.w3.org/2000/svg">
  <path fill-rule="evenodd" d="M3.784 11.25h3.99c.153-2.35.994-4.44 1.815-5.969.282-.525.564-.988.82-1.378a8.255 8.255 0 0 0-6.625 7.347ZM12 4.232c-.305.43-.697 1.03-1.09 1.759-.75 1.398-1.481 3.237-1.632 5.259h5.444c-.15-2.022-.882-3.861-1.633-5.259-.392-.73-.784-1.33-1.089-1.76Zm2.722 8.518H9.278c.15 2.022.882 3.861 1.633 5.259.392.73.784 1.33 1.089 1.76.305-.43.697-1.03 1.09-1.76.75-1.398 1.481-3.237 1.632-5.259Zm-4.313 7.347c-.256-.39-.538-.853-.82-1.378-.82-1.528-1.662-3.618-1.815-5.969h-3.99a8.255 8.255 0 0 0 6.625 7.347Zm3.182 0c.256-.39.538-.853.82-1.378.82-1.528 1.662-3.618 1.815-5.969h3.99a8.255 8.255 0 0 1-6.625 7.347Zm6.625-8.847h-3.99c-.153-2.35-.994-4.44-1.815-5.969a18.45 18.45 0 0 0-.82-1.378 8.255 8.255 0 0 1 6.625 7.347ZM2.25 12c0-5.385 4.365-9.75 9.75-9.75s9.75 4.365 9.75 9.75-4.365 9.75-9.75 9.75S2.25 17.385 2.25 12Z" clip-rule="evenodd"></path>
</svg>