<svg xmlns="http://www.w3.org/2000/svg" viewBox="0 0 32 32">
				<rect width="32" height="32" fill="rgba(255,255,255,0.1)" rx="16"></rect>
				<!--?lit$400454062$-->
				<path fill="rgba(255,255,255,0.6)" fill-rule="evenodd" d="M16 9.75a2.25 2.25 0 1 0 0 4.5 2.25 2.25 0 0 0 0-4.5ZM12.25 12a3.75 3.75 0 1 1 7.5 0 3.75 3.75 0 0 1-7.5 0Zm.39 6.75a1.25 1.25 0 0 0-1.226 1.005l-.678 3.392a.75.75 0 1 1-1.471-.294l.678-3.392a2.75 2.75 0 0 1 2.697-2.211h6.72a2.75 2.75 0 0 1 2.697 2.21l.679 3.393a.75.75 0 0 1-1.471.294l-.679-3.392a1.25 1.25 0 0 0-1.226-1.005h-6.72Z" clip-rule="evenodd"></path>
			</svg>