<svg xmlns="http://www.w3.org/2000/svg" fill="#fff" viewBox="0 0 32 32"><path d="m29.68 17.451a6.833 6.833 0 0 0 -.06-.244c-.374-1.415-2.113-3.11-4.686-3.623-.74-.146-1.72.024-2.285.538a3.51 3.51 0 0 0 -.47-.138 1.95 1.95 0 0 1 .367-.311c.322-.202.782-.484.995-.55 0 0 .183-.066.288-.1.007-.135-.042-.23-.53-.462-.403-.193-1.27-.206-1.27-.206-1.251-.006-2.026.572-2.026.572s-.033.143-.026.18c.006.038.196.124.196.124.296.117 1.346.544 1.59.69 0 0-.457.085-.777.32l-1.375-.407c-.157-.047-.132-.142-.132-.142l.454-.4a.42.42 0 0 1 -.143-.11c-.014-.048.02-.247.054-.33.11-.1.572-.322.844-.42.263-.095.876-.188.903-.211.045-.063.085-.13.12-.2.04-.077-.003-.127-.003-.127l-.12-.114s-.03-.026.019-.03c0 0 .36.008.617.038a3.866 3.866 0 0 0 -.135-.151c-.013-.045-.01-.13.11-.238l.713-.708a.284.284 0 0 0 .05-.086l.059-.18.875.354a.947.947 0 0 1 .06-.276l-1.22-.493-.093-.083c-.035-.033-.072-.063-.072-.063a.963.963 0 0 0 -.154-.088l-1.273-.434a.234.234 0 0 0 -.104-.012.538.538 0 0 1 -.18.01 25.642 25.642 0 0 0 -.621-.227 1.197 1.197 0 0 1 -.075.225l.215.079.147.054-.036.066a.126.126 0 0 1 -.02.025 4.606 4.606 0 0 1 -.143.139l-.115-.094c-.072-.058-.247-.1-.247-.1s.142-.28.158-.42c.012-.06-.052-.096-.052-.096-.05-.027-.686-.437-.843-.5-.22-.07-.443-.13-.668-.18-.18-.041-.214.115-.214.115s-.03.143-.057.314c0 0-.026.107.11.154.137.048.28.089.417.137l-.063.184c-2.197-.763-4.636-.885-4.636-.885-.15-.004-.282.017-.884.226-.601.209-1.03.392-1.281.404-.187.009-.73.027-.988.035-.085-.164-1.455-.657-2.024-.858-.173-.061-.224-.04-.282.003a.524.524 0 0 0 -.106.16l-.04.083c.12.11.14.196.135.245a.14.14 0 0 1 -.013.047c-.294-.102-.59-.203-.885-.302.76-.923 1.26-2.1 1.26-3.39a5.314 5.314 0 0 0 -.761-2.75c2.168-.43 4.81-.72 8.012-.72 9.174 0 13.77 2.37 15.66 3.658.144 1.91.388 6.247-2.24 12.28zm-7.432-5.581a4.867 4.867 0 0 0 -.447-.014l.058.057s.044.05.003.128l-.088.16c.085-.01.17-.013.254-.01 0 0 .094 0 .249.01.18-.305-.029-.331-.029-.331zm3.31-1.182s-.403-.113-.666-.142a11.21 11.21 0 0 0 -.82 0 .766.766 0 0 0 -.05.266s0 .086.06.11l.19.05c.033.01.076.02.124.04 0 0 .27.09.476.25 0 0 .19.148.29.032.11-.126.345-.395.434-.49.08-.087-.038-.116-.038-.116zm-19.643 9.24c-.8-.027-1.735.295-1.214 1.196 4.597 7.938 9.502 9.808 11.56 10.8.93-.45 2.425-1.108 4.252-2.367 1.03-.71.95-1.734.657-2.45-1.331-3.264-8.501-6.938-15.255-7.179zm14.717-5.37-.385-.103-.871 1.028.647.158c.106-.473.609-1.082.609-1.082zm-1.433-.595-1.04.95.837.228.793-.87-.488-.18c-.108-.04-.102-.128-.102-.128zm-5.613 1.678-.376-.932-.106-.015-.6.75c.39.398 1.082.197 1.082.197zm4.698-6.182a8.92 8.92 0 0 0 -.734-.11c-.486-.064-.975-.1-1.465-.11a.402.402 0 0 0 -.204.077s-.388.245-.685.446c-.298.2-.457.335-.49.406 0 0-.047.073.068.184.175.166.356.296.574.496 0 0 .235.24.595.214.412-.034.825-.062 1.239-.085.24-.012.44-.018.729-.02l.12-.174a.19.19 0 0 1 .148-.064c.223.009.456.022.632.04-.163-.5-.351-1.19-.351-1.19-.036-.09-.176-.11-.176-.11zm-2.824-.448c-.702-.39-1.618-.542-1.618-.542-.664.23-1.243.448-1.737.622a.058.058 0 0 0 -.032.042l-.004.034a.052.052 0 0 1 -.035.047l-.24.087s-.062.018.004.044c.174.069.748.302 1.213.53.126.05.36.085.528 0 .08-.04.127-.061.154-.073a.142.142 0 0 1 .073-.001l.245.08a.16.16 0 0 0 .106-.014c.2-.12.93-.546 1.31-.736.034-.025.134-.064.033-.12zm.943 2.655-1.08.317s.613.64.98 1.42c-.096-.39-.218-.808-.3-.993-.034-.078.023-.106.023-.106l.56-.303a.337.337 0 0 1 .17-.03s1.334.072 3.279.198l-3.42-.523a.904.904 0 0 0 -.212.02zm-7.573-2.912c.19.066.464.158.71.256 0 0 .192.073.477.045 0 0 .368-.044.582-.042-.337-.272-1.703-.708-1.703-.708s-.061.247-.066.449zm17.79 10.187c-1.29.017-2.65-.462-3.534-1.58l-.024.037c-.544.726-1.206.77-1.431.743-.226-.03-1.064-.377-1.397-.775-.332-.398-.32-1.088-.32-1.088l-.79-.262a5.775 5.775 0 0 1 -1.043-.481l-1.096-.607c-.492.254-1.184.079-1.751-.37-.066.233-.384.874-.74 1.2-.358.328-1.11.762-1.694.745-.585-.016-1.806-.635-2.19-1.495-.383-.86-.008-1.818-.008-1.818l-.42-.097c-.18-.053-.35-.13-.51-.23 0 0-.71.607-1.56.38-.847-.228-1.511-.92-1.664-1.53a2.036 2.036 0 0 1 .096-1.218s-.14-.04-.138-.136.04-.941.04-.941a5.33 5.33 0 0 1 -2.767.689c-.221-.004-.431-.036-.646-.062a3.883 3.883 0 0 1 -.34-.064c-.743-.141-1.477-.568-2.107-1.001.14 1.37.526 3.366 1.043 5.205.706 2.514 2.922 3.314 6.285 3.85 7.41 1.18 14.554 6.89 14.055 10.377 1.84-1.582 3.872-3.875 5.849-7.29.75-1.291.002-2.198-1.198-2.181zm-7.347-8.81-.186.105s-.092.053-.034.163l.147.415c.73.12 1.073.32 1.21.427 0 0 .08.064.03-.03-.512-.984-1.167-1.08-1.167-1.08zm1.535.303s.413.358.814.738a.123.123 0 0 1 .017-.004c.022-.003.273-.024.273-.024a.09.09 0 0 0 .042-.014c.029-.02.346-.264.568-.455.06-.056.11-.103.173-.166a.21.21 0 0 0 .032-.044l.07-.126-.266-.1-.19-.073c-.051-.02-.201-.1-.24-.166a.224.224 0 0 0 -.1-.093l-1.034-.354a.234.234 0 0 0 -.104-.01c-.094.017-.21-.027-.21-.027l-.031.098a.158.158 0 0 1 -.028.05l-.14.139c.08.065.17.135.25.197.188.144.14.302.14.302zm-10.234.3c.056 0 .113.01.166.03-.003-.004-.055-.102-.153-.13a.216.216 0 0 0 -.177.037c-.192.12-.385.51-.338.814.04.253.114.316.248.316a.603.603 0 0 0 .057-.003l.103-.01-.1-.03a.247.247 0 0 1 -.166-.17c-.07-.211.027-.534.157-.712.066-.09.134-.138.203-.142zm1.858 3.06c-.41.795-.122 1.347-.122 1.347l.557-.824.018-.122-.453-.4zm9.372 3.598c.27.196.622.035.622.035l-.256-.758-.062-.01-.345.676zm.303-1.7.15.214.074-.034.52-.646.004-.033c-.324-.075-.748.499-.748.499zm6.367 2.443c-.183-2.353-3.662-4.764-5.56-3.898.06.03.12.065.176.103.354.244.54.384.642.938.079.437-.048 1.05-.371 1.648 1.753 1.183 4.185.24 5.113 1.209zm-6.788-1.056.32-.7.017-.111s-.054-.123-.116-.256c-.327.61-.221 1.067-.221 1.067zm.766-.601.21.812c.139-.134.263-.283.37-.443.188-.277.235-.521.235-.521l-.75.06zm-8.822-1.987.32.983c.64-.466.76-1.14.76-1.14l-1.001.056-.08.1zm-.945-1.078.51.347.114-.052.557-.852c-.653-.071-1.181.557-1.181.557zm1.528-.451-.51.844.06.093.984.037c-.022-.678-.534-.974-.534-.974zm8.36 2.962.028.077h.712a.875.875 0 0 0 -.228-.776l-.51.687zm-15.33-7.723c-.385.416-.59 1.082-.59 1.082s-.031.835-.033.93c-.002.097.148.147.148.147l-.062.708.243-.006s.106 0 .115-.12l.11-1.51a8.628 8.628 0 0 0 -.31-.107c.16-.584.554-1.064.554-1.064zm.512.603 1.347.368s-.624.117-.914.163a.26.26 0 0 0 -.186.139 1.91 1.91 0 0 0 -.1.274 4.95 4.95 0 0 1 1.023.683c.457.423.616.8.658.92a.03.03 0 0 0 .018.023.031.031 0 0 0 .03-.003c.108-.057.22-.107.336-.15 0 0-.08.593.219.676l.298.083s.084.024.136 0c0 0 .357-.185.462-.383a.627.627 0 0 0 -.018-.623c.953-.11 1.858-.015 1.858-.015a.913.913 0 0 0 -.1-.177c-.046-.02-.371-.133-1.421-.36 0 0 .752-.01 1.635.294.143.058.264.16.343.293 0 0 .207.38.487.448.2.049.493.09.493.09s1.399 1.069 1.815 2.509l.525.454-1.35-.436s.186-1.028-.506-1.755c-.69-.728-1.64-.865-2.217-.852-.57.012-1.323.575-1.603.96-.38-.037-.76-.068-1.141-.092a.09.09 0 0 0 -.08.035c-.235.268-.39.297-.39.297a1.095 1.095 0 0 1 -.12-.128c-1.131.414-1.545-.45-1.545-.45l.024-.384c0-.065.07-.066.07-.066l.079-.004.72.483s.055.037.037-.022a.61.61 0 0 1 -.031-.135.415.415 0 0 1 .27-.437.402.402 0 0 1 .332.037s.057.03.033-.026c-.066-.155-.235-.493-.637-.865a5.973 5.973 0 0 0 -.696-.495s-.08-.058-.1.054l-.13 1.154a.107.107 0 0 1 -.097.094l-.26.01.076-.835-.048-.027c-.1-.065-.09-.197-.09-.197.014-.263.03-.527.047-.79 0 0 .117-.452.409-.834zm1.567 2.896a.374.374 0 0 0 -.324-.055.332.332 0 0 0 -.23.35.347.347 0 0 0 .057.164.43.43 0 0 0 .25.143s.11.016.144.003c0 0 .232-.103.296-.203.052-.08.055-.184.002-.255a.733.733 0 0 0 -.195-.147zm-.358.038c-.085.072-.142.247-.084.356.049.09.094.105.164.087l.03-.01.05-.017-.053.002a.125.125 0 0 1 -.106-.043c-.06-.07-.044-.206.002-.292a.16.16 0 0 1 .089-.081.315.315 0 0 1 .088-.011.145.145 0 0 0 -.093-.03.15.15 0 0 0 -.087.039zm-5.12-3.05a3.844 3.844 0 1 0 0-7.688 3.844 3.844 0 0 0 0 7.688z"/></svg>